<svg width="24" height="24" viewBox="0 0 24 24" fill="none" xmlns="http://www.w3.org/2000/svg">
<path fill-rule="evenodd" clip-rule="evenodd" d="M5.49838 7.59536C5.07721 4.22603 7.70439 1.25 11.0999 1.25H12.8029C16.202 1.25 18.832 4.22918 18.4104 7.60208L18.3458 8.11901C18.2207 9.11912 18.5843 10.1183 19.3229 10.8042L19.3668 10.845C20.9801 12.3432 21.2932 14.7799 20.111 16.6373C19.2736 17.9532 17.822 18.75 16.2623 18.75H8.04144C6.23321 18.75 4.58391 17.7169 3.79474 16.09L3.69139 15.8769C2.84474 14.1315 3.24083 12.0375 4.66651 10.7219C5.35452 10.0871 5.69385 9.15916 5.57773 8.23021L5.49838 7.59536ZM11.0999 2.75C8.60664 2.75 6.67754 4.93526 6.98679 7.40931L7.06615 8.04416C7.24231 9.45345 6.72752 10.8611 5.68376 11.8243C4.74401 12.6915 4.48291 14.0718 5.04099 15.2223L5.14435 15.4353C5.68271 16.5452 6.80787 17.25 8.04144 17.25H16.2623C17.3091 17.25 18.2835 16.7152 18.8456 15.832C19.639 14.5852 19.4289 12.9497 18.346 11.9441L18.3021 11.9033C17.2101 10.8892 16.6725 9.41174 16.8573 7.93296L16.922 7.41603C17.2317 4.93841 15.2998 2.75 12.8029 2.75H11.0999ZM8.73336 20.4C9.06473 20.1515 9.53483 20.2186 9.78336 20.55L10.0834 20.95C11.1334 22.35 13.2334 22.35 14.2834 20.95L14.5834 20.55C14.8319 20.2186 15.302 20.1515 15.6334 20.4C15.9647 20.6485 16.0319 21.1186 15.7834 21.45L15.4834 21.85C13.8334 24.05 10.5334 24.05 8.88336 21.85L8.58336 21.45C8.33484 21.1186 8.40199 20.6485 8.73336 20.4Z" fill="#929292"/>
</svg>
