<svg width="18" height="18" viewBox="0 0 18 18" fill="none" xmlns="http://www.w3.org/2000/svg">
<path d="M17.1818 8.99999C17.1818 13.5187 13.5187 17.1818 8.99999 17.1818C4.4813 17.1818 0.818176 13.5187 0.818176 8.99999C0.818176 4.4813 4.4813 0.818176 8.99999 0.818176C13.5187 0.818176 17.1818 4.4813 17.1818 8.99999Z" fill="white"/>
<path fill-rule="evenodd" clip-rule="evenodd" d="M9 1.63636C4.93318 1.63636 1.63636 4.93318 1.63636 9C1.63636 13.0668 4.93318 16.3636 9 16.3636C13.0668 16.3636 16.3636 13.0668 16.3636 9C16.3636 4.93318 13.0668 1.63636 9 1.63636ZM0 9C0 4.02944 4.02944 0 9 0C13.9706 0 18 4.02944 18 9C18 13.9706 13.9706 18 9 18C4.02944 18 0 13.9706 0 9ZM13.6367 5.93588C13.9733 6.23729 14.0019 6.75455 13.7005 7.0912L10.9054 10.2131C10.3922 10.7864 9.94985 11.2806 9.54205 11.6233C9.10377 11.9917 8.60596 12.2727 7.97727 12.2727C7.34858 12.2727 6.85077 11.9917 6.4125 11.6233C6.00469 11.2806 5.56233 10.7864 5.0491 10.2131L4.29952 9.37586C3.99811 9.03921 4.02668 8.52195 4.36334 8.22054C4.7 7.91913 5.21725 7.94771 5.51866 8.28436L6.2298 9.07867C6.79251 9.70718 7.15752 10.1119 7.46537 10.3707C7.75289 10.6124 7.88743 10.6364 7.97727 10.6364C8.06711 10.6364 8.20165 10.6124 8.48918 10.3707C8.79703 10.1119 9.16204 9.70718 9.72474 9.07867L12.4813 5.9997C12.7827 5.66305 13.3 5.63447 13.6367 5.93588Z" fill="#545EE8"/>
</svg>
