<svg width="18" height="18" viewBox="0 0 18 18" fill="none" xmlns="http://www.w3.org/2000/svg">
<path d="M10.5 9C10.5 9.82843 9.82843 10.5 9 10.5C8.17157 10.5 7.5 9.82843 7.5 9C7.5 8.17157 8.17157 7.5 9 7.5C9.82843 7.5 10.5 8.17157 10.5 9Z" fill="#929292"/>
<path d="M10.5 3C10.5 3.82843 9.82843 4.5 9 4.5C8.17157 4.5 7.5 3.82843 7.5 3C7.5 2.17157 8.17157 1.5 9 1.5C9.82843 1.5 10.5 2.17157 10.5 3Z" fill="#929292"/>
<path d="M10.5 15C10.5 15.8284 9.82843 16.5 9 16.5C8.17157 16.5 7.5 15.8284 7.5 15C7.5 14.1716 8.17157 13.5 9 13.5C9.82843 13.5 10.5 14.1716 10.5 15Z" fill="#929292"/>
</svg>
