<svg width="26" height="26" viewBox="0 0 26 26" fill="none" xmlns="http://www.w3.org/2000/svg">
<path d="M13.0001 15.1666C14.1967 15.1666 15.1667 14.1965 15.1667 12.9999C15.1667 11.8033 14.1967 10.8333 13.0001 10.8333C11.8035 10.8333 10.8334 11.8033 10.8334 12.9999C10.8334 14.1965 11.8035 15.1666 13.0001 15.1666Z" fill="white"/>
<path d="M4.33341 15.1666C5.53003 15.1666 6.50008 14.1965 6.50008 12.9999C6.50008 11.8033 5.53003 10.8333 4.33341 10.8333C3.1368 10.8333 2.16675 11.8033 2.16675 12.9999C2.16675 14.1965 3.1368 15.1666 4.33341 15.1666Z" fill="white"/>
<path d="M21.6667 15.1666C22.8634 15.1666 23.8334 14.1965 23.8334 12.9999C23.8334 11.8033 22.8634 10.8333 21.6667 10.8333C20.4701 10.8333 19.5001 11.8033 19.5001 12.9999C19.5001 14.1965 20.4701 15.1666 21.6667 15.1666Z" fill="white"/>
</svg>
