<svg width="22" height="22" viewBox="0 0 22 22" fill="none" xmlns="http://www.w3.org/2000/svg">
<path d="M2.98535 14.5013L3.69864 14.2696L2.98535 14.5013ZM1.96739 8.84725L2.6887 9.05271L1.96739 8.84725ZM6.21817 4.55174L5.77733 3.94498L6.21817 4.55174ZM2.07123 8.52765L2.77555 8.7854L2.07123 8.52765ZM5.75706 19.8715L5.33876 20.494L5.75706 19.8715ZM5.48519 19.6739L5.0224 20.2641L5.48519 19.6739ZM19.9126 14.5013L19.1993 14.2696L19.9126 14.5013ZM17.4128 19.6739L17.8756 20.2641L17.4128 19.6739ZM17.1409 19.8715L17.5592 20.494L17.1409 19.8715ZM16.6798 4.55174L17.1206 3.94498L16.6798 4.55174ZM20.8267 8.52765L20.1224 8.7854L20.8267 8.52765ZM20.9306 8.84725L20.2093 9.05271L20.9306 8.84725ZM11.617 1.83639L11.5895 2.58589L11.617 1.83639ZM11.281 1.83639L11.3084 2.58589L11.281 1.83639ZM9.61565 15.5847C9.20143 15.5847 8.86565 15.9205 8.86565 16.3347C8.86565 16.7489 9.20143 17.0847 9.61565 17.0847V15.5847ZM13.2823 17.0847C13.6965 17.0847 14.0323 16.7489 14.0323 16.3347C14.0323 15.9205 13.6965 15.5847 13.2823 15.5847V17.0847ZM3.69864 14.2696C3.22673 12.8172 2.89217 11.7842 2.7168 10.9467C2.54502 10.1264 2.54287 9.56469 2.6887 9.05271L1.24608 8.64179C1.00925 9.47323 1.0492 10.3017 1.24864 11.2541C1.44447 12.1893 1.81022 13.3117 2.27206 14.7331L3.69864 14.2696ZM5.77733 3.94498C4.56823 4.82344 3.61261 5.51649 2.90448 6.15798C2.1833 6.81128 1.66403 7.45804 1.36692 8.26989L2.77555 8.7854C2.9585 8.28549 3.2904 7.83234 3.91154 7.26965C4.54571 6.69516 5.42353 6.05613 6.65901 5.1585L5.77733 3.94498ZM2.6887 9.05271C2.71437 8.96258 2.74334 8.87341 2.77555 8.7854L1.36692 8.26989C1.32211 8.39234 1.2818 8.51639 1.24608 8.64179L2.6887 9.05271ZM11.449 19.9005C9.92185 19.9005 8.83607 19.8995 7.98533 19.8075C7.15208 19.7174 6.61721 19.5458 6.17536 19.2489L5.33876 20.494C6.05632 20.9761 6.85658 21.1941 7.82402 21.2988C8.77397 21.4015 9.95444 21.4005 11.449 21.4005V19.9005ZM2.27206 14.7331C2.73389 16.1545 3.09771 17.2775 3.48898 18.1492C3.88746 19.037 4.3421 19.7307 5.0224 20.2641L5.94797 19.0837C5.52906 18.7553 5.20065 18.2996 4.85745 17.535C4.50704 16.7543 4.17055 15.722 3.69864 14.2696L2.27206 14.7331ZM6.17536 19.2489C6.09757 19.1967 6.02172 19.1416 5.94797 19.0837L5.0224 20.2641C5.12501 20.3446 5.23054 20.4212 5.33876 20.494L6.17536 19.2489ZM19.1993 14.2696C18.7274 15.722 18.3909 16.7543 18.0405 17.535C17.6973 18.2996 17.3689 18.7553 16.95 19.0837L17.8756 20.2641C18.5559 19.7307 19.0105 19.037 19.409 18.1492C19.8002 17.2775 20.1641 16.1545 20.6259 14.7331L19.1993 14.2696ZM11.449 21.4005C12.9435 21.4005 14.124 21.4015 15.0739 21.2988C16.0414 21.1941 16.8416 20.9761 17.5592 20.494L16.7226 19.2489C16.2807 19.5458 15.7459 19.7174 14.9126 19.8075C14.0619 19.8995 12.9761 19.9005 11.449 19.9005V21.4005ZM16.95 19.0837C16.8762 19.1416 16.8004 19.1967 16.7226 19.2489L17.5592 20.494C17.6674 20.4212 17.7729 20.3446 17.8756 20.2641L16.95 19.0837ZM16.239 5.1585C17.4744 6.05613 18.3522 6.69516 18.9864 7.26965C19.6076 7.83234 19.9395 8.28549 20.1224 8.7854L21.531 8.26989C21.2339 7.45804 20.7147 6.81128 19.9935 6.15798C19.2854 5.51649 18.3297 4.82344 17.1206 3.94498L16.239 5.1585ZM20.6259 14.7331C21.0877 13.3117 21.4535 12.1893 21.6493 11.2541C21.8488 10.3017 21.8887 9.47323 21.6519 8.64179L20.2093 9.05271C20.3551 9.56469 20.3529 10.1264 20.1812 10.9467C20.0058 11.7842 19.6712 12.8172 19.1993 14.2696L20.6259 14.7331ZM20.1224 8.7854C20.1546 8.87341 20.1836 8.96257 20.2093 9.05271L21.6519 8.64179C21.6162 8.51639 21.5759 8.39234 21.531 8.26989L20.1224 8.7854ZM17.1206 3.94498C15.9115 3.06651 14.9571 2.37183 14.1282 1.89659C13.284 1.41259 12.5084 1.11859 11.6445 1.0869L11.5895 2.58589C12.1215 2.60541 12.655 2.78103 13.3821 3.19789C14.1245 3.62349 15.0035 4.26088 16.239 5.1585L17.1206 3.94498ZM6.65901 5.1585C7.89448 4.26088 8.7735 3.62349 9.51585 3.19789C10.2429 2.78103 10.7765 2.60541 11.3084 2.58589L11.2535 1.0869C10.3895 1.11859 9.61396 1.41259 8.76978 1.89659C7.94086 2.37183 6.98643 3.06651 5.77733 3.94498L6.65901 5.1585ZM11.6445 1.0869C11.5142 1.08212 11.3838 1.08212 11.2535 1.0869L11.3084 2.58589C11.4021 2.58245 11.4959 2.58245 11.5895 2.58589L11.6445 1.0869ZM9.61565 17.0847H13.2823V15.5847H9.61565V17.0847Z" fill="#2D264B"/>
</svg>
