<svg width="18" height="18" viewBox="0 0 18 18" fill="none" xmlns="http://www.w3.org/2000/svg">
<path fill-rule="evenodd" clip-rule="evenodd" d="M9 2.0625C5.16852 2.0625 2.0625 5.16852 2.0625 9C2.0625 12.8315 5.16852 15.9375 9 15.9375C12.8315 15.9375 15.9375 12.8315 15.9375 9C15.9375 5.16852 12.8315 2.0625 9 2.0625ZM0.9375 9C0.9375 4.5472 4.5472 0.9375 9 0.9375C13.4528 0.9375 17.0625 4.5472 17.0625 9C17.0625 13.4528 13.4528 17.0625 9 17.0625C4.5472 17.0625 0.9375 13.4528 0.9375 9ZM7.29435 5.8134C7.19007 5.82019 7.06915 5.86457 6.9514 5.93096C6.6026 6.12764 6.1474 6.12764 5.79859 5.93097C5.68084 5.86457 5.55993 5.82019 5.45565 5.81341C5.37114 5.80791 5.28912 5.82433 5.19438 5.91021C5.08297 6.0112 5.05018 6.11579 5.06614 6.25925C5.08515 6.43005 5.17914 6.65303 5.35451 6.89304C5.52608 7.12786 5.74776 7.34044 5.9627 7.49009C6.06951 7.56446 6.16622 7.61738 6.24576 7.65019C6.28505 7.6664 6.31661 7.67623 6.34022 7.68178C6.3634 7.68722 6.3745 7.68749 6.37499 7.6875L6.375 7.6875C6.37476 7.6875 6.38581 7.6874 6.40978 7.68178C6.4334 7.67623 6.46496 7.6664 6.50425 7.65019C6.58378 7.61738 6.68049 7.56446 6.7873 7.49009C7.00224 7.34044 7.22392 7.12786 7.39549 6.89304C7.57086 6.65303 7.66485 6.43006 7.68386 6.25925C7.69982 6.11579 7.66703 6.0112 7.55562 5.91021C7.46088 5.82433 7.37886 5.8079 7.29435 5.8134ZM6.40072 4.94996C6.76775 4.74349 7.58972 4.4227 8.31118 5.07669C8.71924 5.44659 8.85334 5.92201 8.80195 6.3837C8.75361 6.81804 8.546 7.22534 8.30385 7.55674C8.05792 7.89334 7.74617 8.19331 7.43011 8.41336C7.13426 8.61934 6.75276 8.8125 6.375 8.8125C5.99725 8.8125 5.61575 8.61935 5.31989 8.41336C5.00383 8.19331 4.69209 7.89334 4.44615 7.55674C4.20401 7.22534 3.99639 6.81804 3.94805 6.3837C3.89666 5.92201 4.03076 5.44659 4.43882 5.07669C5.16028 4.42271 5.98225 4.74349 6.34927 4.94996C6.34996 4.9502 6.35121 4.9506 6.35307 4.95106C6.35838 4.95236 6.366 4.95347 6.375 4.95347C6.38399 4.95347 6.39162 4.95236 6.39692 4.95106C6.39878 4.9506 6.40003 4.9502 6.40072 4.94996ZM12.5443 5.8134C12.4401 5.82019 12.3192 5.86457 12.2014 5.93096C11.8526 6.12764 11.3974 6.12764 11.0486 5.93097C10.9308 5.86457 10.8099 5.82019 10.7057 5.81341C10.6211 5.80791 10.5391 5.82433 10.4444 5.91021C10.333 6.0112 10.3002 6.11579 10.3161 6.25925C10.3352 6.43005 10.4291 6.65303 10.6045 6.89304C10.7761 7.12786 10.9978 7.34044 11.2127 7.49009C11.3195 7.56446 11.4162 7.61738 11.4958 7.65019C11.535 7.6664 11.5666 7.67623 11.5902 7.68178C11.6134 7.68722 11.6245 7.68749 11.625 7.6875L11.625 7.6875C11.6248 7.6875 11.6358 7.6874 11.6598 7.68178C11.6834 7.67623 11.715 7.6664 11.7542 7.65019C11.8338 7.61738 11.9305 7.56446 12.0373 7.49009C12.2522 7.34044 12.4739 7.12786 12.6455 6.89304C12.8209 6.65303 12.9148 6.43006 12.9339 6.25925C12.9498 6.11579 12.917 6.0112 12.8056 5.91021C12.7109 5.82433 12.6289 5.8079 12.5443 5.8134ZM11.6507 4.94996C12.0177 4.74349 12.8397 4.4227 13.5612 5.07669C13.9692 5.44659 14.1033 5.92201 14.052 6.3837C14.0036 6.81804 13.796 7.22534 13.5539 7.55674C13.3079 7.89334 12.9962 8.19331 12.6801 8.41336C12.3843 8.61934 12.0028 8.8125 11.625 8.8125C11.2472 8.8125 10.8658 8.61935 10.5699 8.41336C10.2538 8.19331 9.94209 7.89334 9.69615 7.55674C9.45401 7.22534 9.24639 6.81804 9.19805 6.3837C9.14666 5.92201 9.28076 5.44659 9.68882 5.07669C10.4103 4.42271 11.2322 4.74349 11.5993 4.94996C11.5999 4.95031 11.6005 4.95066 11.6011 4.95101C11.5995 4.95011 11.5987 4.94975 11.5986 4.94972C11.5986 4.94971 11.5988 4.9498 11.5993 4.94996C11.6 4.9502 11.6012 4.9506 11.6031 4.95106C11.6084 4.95236 11.616 4.95347 11.625 4.95347C11.634 4.95347 11.6416 4.95236 11.6469 4.95106C11.6488 4.9506 11.65 4.9502 11.6507 4.94996ZM11.6507 4.94996C11.6501 4.95031 11.6495 4.95066 11.6488 4.95101C11.6504 4.95011 11.6513 4.94975 11.6514 4.94972C11.6514 4.94971 11.6512 4.9498 11.6507 4.94996ZM6.34205 11.9064C6.34222 11.9095 6.34297 11.9234 6.36208 11.9486C6.69538 12.3892 7.10868 12.8334 7.57126 13.1632C8.03411 13.4932 8.51566 13.6875 9 13.6875C9.48434 13.6875 9.96589 13.4932 10.4287 13.1632C10.8913 12.8334 11.3046 12.3892 11.6379 11.9486C11.657 11.9234 11.6578 11.9095 11.6579 11.9064V11.9064C11.6582 11.9009 11.6573 11.8908 11.6495 11.877C11.6341 11.8496 11.5935 11.8125 11.5163 11.8125H6.48372C6.40652 11.8125 6.36595 11.8496 6.35051 11.877C6.34273 11.8908 6.34176 11.9009 6.34205 11.9064V11.9064ZM5.37046 11.3246C5.58436 10.9451 5.99855 10.6875 6.48372 10.6875H11.5163C12.0015 10.6875 12.4156 10.9451 12.6295 11.3246C12.8483 11.7127 12.847 12.2151 12.5351 12.6274C12.1579 13.126 11.6659 13.6628 11.0818 14.0792C10.498 14.4954 9.79159 14.8125 9 14.8125C8.20841 14.8125 7.50195 14.4954 6.91817 14.0792C6.33411 13.6628 5.84212 13.126 5.46493 12.6274C5.15297 12.2151 5.15174 11.7127 5.37046 11.3246Z" fill="#545EE8"/>
</svg>
