<svg width="24" height="24" viewBox="0 0 24 24" fill="none" xmlns="http://www.w3.org/2000/svg">
<path fill-rule="evenodd" clip-rule="evenodd" d="M6.29854 5.25C6.66621 2.42852 9.07856 0.25 12 0.25C14.9215 0.25 17.3339 2.42858 17.7015 5.25L18.3641 5.25C19.3598 5.24997 20.1855 5.24994 20.8335 5.34049C21.5147 5.43567 22.1268 5.64585 22.5924 6.16597C23.0579 6.68609 23.1992 7.31769 23.2186 8.00527C23.237 8.65931 23.1458 9.47995 23.0358 10.4695L22.7279 13.2406C22.4979 15.311 22.3172 16.937 22.0104 18.2008C21.6958 19.4962 21.2281 20.5072 20.3596 21.2845C19.4903 22.0625 18.4288 22.4154 17.0995 22.5847C15.8015 22.75 14.1534 22.75 12.0535 22.75H11.9465C9.84668 22.75 8.19853 22.75 6.90058 22.5847C5.5712 22.4154 4.50972 22.0625 3.64044 21.2845C2.77199 20.5072 2.30419 19.4962 1.98967 18.2008C1.68282 16.937 1.50216 15.3109 1.27213 13.2405L0.964243 10.4695C0.854258 9.47995 0.76305 8.65932 0.781479 8.00527C0.800852 7.31769 0.942142 6.68609 1.40767 6.16597C1.8732 5.64585 2.48534 5.43567 3.16658 5.34049C3.81459 5.24994 4.64028 5.24997 5.63596 5.25L6.29854 5.25ZM7.81593 5.25H16.1841C15.8299 3.26063 14.0913 1.75 12 1.75C9.90874 1.75 8.17003 3.26068 7.81593 5.25ZM3.37415 6.82605C2.86348 6.89741 2.65607 7.02031 2.52536 7.16635C2.39465 7.31239 2.29541 7.5321 2.28088 8.04752C2.26576 8.58441 2.34355 9.30019 2.46118 10.3589L2.75702 13.0215C2.9943 15.1569 3.16579 16.6873 3.44733 17.8469C3.72383 18.9857 4.08547 19.6697 4.64082 20.1668C5.19533 20.6631 5.91835 20.9475 7.09012 21.0967C8.28232 21.2486 9.835 21.25 12 21.25C14.165 21.25 15.7177 21.2486 16.9099 21.0967C18.0817 20.9475 18.8047 20.6631 19.3592 20.1668C19.9146 19.6697 20.2762 18.9857 20.5527 17.8469C20.8343 16.6873 21.0057 15.1569 21.243 13.0215L21.5389 10.3589C21.6565 9.30019 21.7343 8.58441 21.7192 8.04752C21.7046 7.5321 21.6054 7.31239 21.4747 7.16635C21.344 7.02031 21.1366 6.89741 20.6259 6.82605C20.094 6.75173 19.374 6.75 18.3087 6.75H5.6913C4.62607 6.75 3.90608 6.75173 3.37415 6.82605ZM5.46969 9.46967C5.76258 9.17678 6.23746 9.17678 6.53035 9.46967L7.13035 10.0697C9.8198 12.7591 14.1802 12.7591 16.8697 10.0697L17.4697 9.46967C17.7626 9.17678 18.2375 9.17678 18.5303 9.46967C18.8232 9.76256 18.8232 10.2374 18.5304 10.5303L17.9304 11.1303C14.6551 14.4056 9.34492 14.4056 6.06969 11.1303L5.46969 10.5303C5.1768 10.2374 5.1768 9.76256 5.46969 9.46967Z" fill="#2D264B"/>
</svg>
