<svg width="22" height="22" viewBox="0 0 22 22" fill="none" xmlns="http://www.w3.org/2000/svg">
<path fill-rule="evenodd" clip-rule="evenodd" d="M8.47913 5.04169C9.61821 5.04169 10.5416 5.9651 10.5416 7.10419C10.5416 8.24327 9.61821 9.16669 8.47913 9.16669C7.34004 9.16669 6.41663 8.24327 6.41663 7.10419C6.41663 5.9651 7.34004 5.04169 8.47913 5.04169ZM11.9166 7.10419C11.9166 5.20571 10.3776 3.66669 8.47913 3.66669C6.58065 3.66669 5.04163 5.20571 5.04163 7.10419C5.04163 9.00267 6.58065 10.5417 8.47913 10.5417C10.3776 10.5417 11.9166 9.00267 11.9166 7.10419ZM14.6666 15.3542C14.6666 13.4557 13.1276 11.9167 11.2291 11.9167H5.72913C3.83065 11.9167 2.29163 13.4557 2.29163 15.3542C2.29163 17.2527 3.83065 18.7917 5.72913 18.7917H11.2291C13.1276 18.7917 14.6666 17.2527 14.6666 15.3542ZM11.2291 13.2917C12.3682 13.2917 13.2916 14.2151 13.2916 15.3542C13.2916 16.4933 12.3682 17.4167 11.2291 17.4167H5.72913C4.59004 17.4167 3.66663 16.4933 3.66663 15.3542C3.66663 14.2151 4.59004 13.2917 5.72913 13.2917H11.2291Z" fill="#2D264B"/>
<path d="M12.373 9.52295C12.5176 9.29069 12.7889 9.16669 13.0625 9.16669C14.2016 9.16669 15.125 8.24327 15.125 7.10419C15.125 5.9651 14.2016 5.04169 13.0625 5.04169C12.7889 5.04169 12.5176 4.91769 12.373 4.68542C12.3666 4.67515 12.3602 4.6649 12.3537 4.65469C12.113 4.27472 12.235 3.73672 12.6821 3.6875C12.807 3.67375 12.9339 3.66669 13.0625 3.66669C14.961 3.66669 16.5 5.20571 16.5 7.10419C16.5 9.00267 14.961 10.5417 13.0625 10.5417C12.9339 10.5417 12.807 10.5346 12.6821 10.5209C12.235 10.4717 12.113 9.93366 12.3537 9.55369C12.3602 9.54347 12.3666 9.53323 12.373 9.52295Z" fill="#2D264B"/>
<path d="M15.1632 16.7905C15.2673 16.6169 15.451 16.5 15.6534 16.5H15.8125C16.9516 16.5 17.875 15.5766 17.875 14.4375C17.875 13.2984 16.9516 12.375 15.8125 12.375H15.6534C15.451 12.375 15.2673 12.2582 15.1632 12.0846C14.9092 11.6608 15.1849 11 15.6789 11H15.8125C17.711 11 19.25 12.539 19.25 14.4375C19.25 16.336 17.711 17.875 15.8125 17.875H15.6789C15.1849 17.875 14.9092 17.2143 15.1632 16.7905Z" fill="#2D264B"/>
</svg>
