<svg width="25" height="24" viewBox="0 0 25 24" fill="none" xmlns="http://www.w3.org/2000/svg">
<path fill-rule="evenodd" clip-rule="evenodd" d="M5.60632 7.60903C5.18515 4.2397 7.81233 1.26367 11.2079 1.26367H12.9108C13.9098 1.26367 14.8453 1.52189 15.6559 1.97331C16.0178 2.17483 16.1478 2.63156 15.9463 2.99345C15.7448 3.35533 15.288 3.48534 14.9262 3.28382C14.3331 2.95355 13.648 2.76367 12.9108 2.76367H11.2079C8.71458 2.76367 6.78548 4.94893 7.09473 7.42298L7.17409 8.05783C7.35025 9.46712 6.83546 10.8748 5.7917 11.838C4.85195 12.7052 4.59085 14.0854 5.14893 15.236L5.25229 15.449C5.79066 16.5589 6.91581 17.2637 8.14938 17.2637H16.3702C17.4171 17.2637 18.3914 16.7288 18.9535 15.8456C19.747 14.5989 19.5368 12.9634 18.454 11.9578L18.4101 11.917C17.9169 11.459 17.5367 10.9063 17.2851 10.3018C17.1824 10.055 17.1012 9.79945 17.0424 9.53816C16.9515 9.13404 17.2054 8.73275 17.6095 8.64184C18.0136 8.55093 18.4149 8.80484 18.5058 9.20895C18.5456 9.38569 18.6006 9.55854 18.67 9.72554C18.8402 10.1344 19.0972 10.5081 19.4308 10.8179L19.4747 10.8586C21.088 12.3569 21.4011 14.7936 20.219 16.651C19.3815 17.9669 17.9299 18.7637 16.3702 18.7637H8.14938C6.34115 18.7637 4.69185 17.7306 3.90268 16.1037L3.79933 15.8906C2.95268 14.1452 3.34877 12.0512 4.77445 10.7356C5.46246 10.1007 5.80179 9.17284 5.68567 8.24388L5.60632 7.60903ZM8.84111 20.4137C9.17248 20.1651 9.64258 20.2323 9.89111 20.5637L10.1911 20.9637C11.2411 22.3637 13.3411 22.3637 14.3911 20.9637L14.6911 20.5637C14.9396 20.2323 15.4097 20.1651 15.7411 20.4137C16.0725 20.6622 16.1396 21.1323 15.8911 21.4637L15.5911 21.8637C13.9411 24.0637 10.6411 24.0637 8.99111 21.8637L8.69111 21.4637C8.44258 21.1323 8.50974 20.6622 8.84111 20.4137Z" fill="white"/>
<path d="M19.2913 6.01367C19.2913 7.11824 18.3958 8.01367 17.2913 8.01367C16.1867 8.01367 15.2913 7.11824 15.2913 6.01367C15.2913 4.9091 16.1867 4.01367 17.2913 4.01367C18.3958 4.01367 19.2913 4.9091 19.2913 6.01367Z" fill="#FF6D3B"/>
</svg>
