<svg width="18" height="18" viewBox="0 0 18 18" fill="none" xmlns="http://www.w3.org/2000/svg">
<path fill-rule="evenodd" clip-rule="evenodd" d="M13.9056 4.09445C11.1963 1.38518 6.80371 1.38518 4.09445 4.09445C1.38518 6.80371 1.38518 11.1963 4.09445 13.9056C5.70011 15.5112 8.77802 16.7198 11.3333 15.372C11.3518 15.3622 11.3699 15.3527 11.3876 15.3433C11.6307 15.2151 11.798 15.1268 11.8975 15.0867C12.0698 15.0175 12.2381 14.9622 12.4273 14.9402C12.6165 14.9182 12.793 14.9333 12.9766 14.9611C13.0825 14.9772 13.2091 15.01 13.3768 15.0536C13.3876 15.0564 13.3986 15.0592 13.4097 15.0621C13.7145 15.1411 13.9256 15.1957 14.0882 15.2304C14.2529 15.2656 14.328 15.2712 14.3666 15.2698C14.8579 15.2521 15.2521 14.8579 15.2698 14.3666C15.2712 14.328 15.2656 14.2529 15.2304 14.0882C15.1957 13.9256 15.1411 13.7145 15.0621 13.4097C15.0592 13.3985 15.0563 13.3875 15.0535 13.3766C15.01 13.2091 14.9773 13.0827 14.9612 12.9774C14.9334 12.795 14.9178 12.6196 14.9393 12.4313C14.9609 12.243 15.0156 12.0756 15.0839 11.9041C15.1233 11.805 15.2116 11.6359 15.3403 11.3895C15.3497 11.3715 15.3593 11.3532 15.3692 11.3343C16.0369 10.0554 16.063 8.64045 15.7161 7.3291C15.3677 6.01214 14.6527 4.84158 13.9056 4.09445ZM3.29895 3.29895C6.44755 0.150349 11.5524 0.150349 14.701 3.29895C15.5902 4.18815 16.4051 5.5345 16.8037 7.0414C17.2038 8.55391 17.1941 10.2698 16.3664 11.855C16.2882 12.0049 16.2316 12.1132 16.1909 12.1932C16.1707 12.233 16.1558 12.263 16.1449 12.2858C16.1416 12.2926 16.1389 12.2984 16.1366 12.3033C16.1352 12.3064 16.1339 12.3092 16.1328 12.3116C16.1302 12.3176 16.1291 12.3202 16.1291 12.3202L16.1291 12.3201C16.0767 12.4519 16.0623 12.5135 16.0571 12.559C16.0519 12.6045 16.052 12.6677 16.0734 12.808C16.0795 12.8479 16.0952 12.9118 16.1511 13.1275L16.1544 13.1401C16.2293 13.4293 16.2902 13.664 16.3306 13.8532C16.3712 14.0431 16.4005 14.2272 16.3941 14.4071C16.3551 15.488 15.488 16.3551 14.4071 16.3941C14.2272 16.4005 14.0431 16.3712 13.8532 16.3306C13.664 16.2902 13.4293 16.2293 13.1401 16.1544L13.1275 16.1511C12.9118 16.0952 12.8479 16.0795 12.8078 16.0734C12.6687 16.0523 12.6042 16.0522 12.5574 16.0576C12.5106 16.0631 12.4479 16.078 12.3173 16.1305C12.3173 16.1305 12.3147 16.1316 12.3087 16.1343C12.3026 16.137 12.2942 16.141 12.2831 16.1463C12.2606 16.1572 12.231 16.172 12.1917 16.1922C12.1128 16.2328 12.006 16.2891 11.8581 16.3671C8.7059 18.0298 5.10517 16.5073 3.29895 14.701C0.150349 11.5524 0.150349 6.44755 3.29895 3.29895Z" fill="#2D264B"/>
<path d="M6.64339 8.89343C6.64339 9.30765 6.3076 9.64343 5.89339 9.64343C5.47917 9.64343 5.14339 9.30765 5.14339 8.89343C5.14339 8.47922 5.47917 8.14343 5.89339 8.14343C6.3076 8.14343 6.64339 8.47922 6.64339 8.89343Z" fill="#2D264B"/>
<path d="M9.64339 8.89343C9.64339 9.30765 9.3076 9.64343 8.89339 9.64343C8.47917 9.64343 8.14339 9.30765 8.14339 8.89343C8.14339 8.47922 8.47917 8.14343 8.89339 8.14343C9.3076 8.14343 9.64339 8.47922 9.64339 8.89343Z" fill="#2D264B"/>
<path d="M12.6434 8.89343C12.6434 9.30765 12.3076 9.64343 11.8934 9.64343C11.4792 9.64343 11.1434 9.30765 11.1434 8.89343C11.1434 8.47922 11.4792 8.14343 11.8934 8.14343C12.3076 8.14343 12.6434 8.47922 12.6434 8.89343Z" fill="#2D264B"/>
</svg>
