<svg width="22" height="22" viewBox="0 0 22 22" fill="none" xmlns="http://www.w3.org/2000/svg">
<path fill-rule="evenodd" clip-rule="evenodd" d="M10.2173 1.83331H11.7827C13.1172 1.83331 14.1634 1.8333 15.0025 1.90596C15.8573 1.97996 16.5612 2.13323 17.1927 2.47805C18.0796 2.9623 18.8085 3.69126 19.2928 4.5781C19.6376 5.20958 19.7909 5.91356 19.8649 6.7683C19.9375 7.60741 19.9375 8.65362 19.9375 9.98809V12.879C19.9375 12.933 19.9375 12.9658 19.9372 12.9944C19.9175 14.8209 18.9694 16.4235 17.5453 17.3534C16.7323 17.8843 15.7632 18.1968 14.7235 18.208C14.6942 18.2083 14.6603 18.2083 14.6037 18.2083L14.5982 18.2083L14.5971 18.2083C14.5356 18.2087 14.4769 18.2336 14.4341 18.2777L14.1033 18.6213C13.5115 19.2362 13.019 19.7479 12.5743 20.0995C12.1055 20.4701 11.6073 20.7313 11 20.7313C10.3927 20.7313 9.89448 20.4701 9.42569 20.0995C8.98099 19.7479 8.48844 19.2362 7.89667 18.6213L7.56664 18.2784L7.5659 18.2777C7.52307 18.2336 7.46435 18.2087 7.40294 18.2083L7.40181 18.2083L7.39103 18.2083C7.33753 18.2083 7.30491 18.2083 7.27645 18.208C6.23678 18.1968 5.26771 17.8843 4.45471 17.3534C3.0306 16.4235 2.08252 14.8209 2.06281 12.9944C2.0625 12.9659 2.0625 12.9332 2.0625 12.8796L2.0625 9.98812C2.0625 8.65364 2.06249 7.60742 2.13514 6.7683C2.20915 5.91356 2.36242 5.20958 2.70724 4.5781C3.19149 3.69126 3.92045 2.9623 4.80729 2.47805C5.43877 2.13323 6.14275 1.97996 6.99749 1.90596C7.83661 1.8333 8.88283 1.83331 10.2173 1.83331ZM7.11609 3.27583C6.35198 3.34199 5.86151 3.46903 5.46626 3.68486C4.81077 4.04278 4.27197 4.58158 3.91404 5.23707C3.69822 5.63232 3.57117 6.1228 3.50502 6.8869C3.4381 7.65979 3.4375 8.64659 3.4375 10.0208V12.8745C3.4375 12.9348 3.43751 12.9594 3.43773 12.9795C3.44931 14.0525 3.89376 15.0214 4.6063 15.7198C5.38373 14.5341 6.72472 13.75 8.25 13.75H13.75C15.2753 13.75 16.6163 14.5341 17.3937 15.7198C18.1062 15.0214 18.5507 14.0525 18.5623 12.9795C18.5625 12.9594 18.5625 12.9348 18.5625 12.8745V10.0208C18.5625 8.64659 18.5619 7.65979 18.495 6.8869C18.4288 6.1228 18.3018 5.63232 18.086 5.23707C17.728 4.58158 17.1892 4.04278 16.5337 3.68486C16.1385 3.46903 15.648 3.34199 14.8839 3.27583C14.111 3.20891 13.1242 3.20831 11.75 3.20831H10.25C8.87578 3.20831 7.88898 3.20891 7.11609 3.27583ZM16.2577 16.4948C15.7273 15.6702 14.8017 15.125 13.75 15.125H8.25C7.19825 15.125 6.27267 15.6702 5.74231 16.4948C6.21563 16.7068 6.73919 16.8271 7.29129 16.8331C7.31137 16.8333 7.33602 16.8333 7.39631 16.8333L7.41054 16.8333C7.84046 16.8357 8.25144 17.0106 8.55129 17.3187L8.56117 17.3289L8.85355 17.6327C9.48789 18.2917 9.91597 18.7343 10.2784 19.0209C10.6252 19.295 10.8273 19.3563 11 19.3563C11.1727 19.3563 11.3748 19.295 11.7216 19.0209C12.084 18.7343 12.5121 18.2917 13.1465 17.6327L13.4388 17.3289L13.4487 17.3187C13.7486 17.0106 14.1595 16.8357 14.5895 16.8333L14.6037 16.8333C14.664 16.8333 14.6886 16.8333 14.7087 16.8331C15.2608 16.8271 15.7844 16.7068 16.2577 16.4948ZM11 5.04165C9.35465 5.04165 8.02083 6.37546 8.02083 8.02081C8.02083 9.66616 9.35465 11 11 11C12.6453 11 13.9792 9.66616 13.9792 8.02081C13.9792 6.37546 12.6453 5.04165 11 5.04165ZM6.64583 8.02081C6.64583 5.61607 8.59526 3.66665 11 3.66665C13.4047 3.66665 15.3542 5.61607 15.3542 8.02081C15.3542 10.4256 13.4047 12.375 11 12.375C8.59526 12.375 6.64583 10.4256 6.64583 8.02081Z" fill="#2D264B"/>
</svg>
