<svg width="24" height="24" viewBox="0 0 24 24" fill="none" xmlns="http://www.w3.org/2000/svg">
<path fill-rule="evenodd" clip-rule="evenodd" d="M5.51057 7.60888C5.0894 4.23955 7.71658 1.26352 11.1121 1.26352H12.8151C13.814 1.26352 14.7495 1.52174 15.5602 1.97315C15.9221 2.17467 16.0521 2.63141 15.8506 2.99329C15.649 3.35518 15.1923 3.48518 14.8304 3.28367C14.2373 2.9534 13.5523 2.76352 12.8151 2.76352H11.1121C8.61883 2.76352 6.68973 4.94877 6.99898 7.42283L7.07834 8.05768C7.2545 9.46697 6.73972 10.8747 5.69595 11.8378C4.7562 12.705 4.49511 14.0853 5.05319 15.2358L5.15654 15.4489C5.69491 16.5588 6.82006 17.2635 8.05363 17.2635H16.2744C17.3213 17.2635 18.2957 16.7287 18.8578 15.8455C19.6512 14.5988 19.4411 12.9632 18.3582 11.9576L18.3143 11.9168C17.8211 11.4588 17.4409 10.9061 17.1894 10.3016C17.0867 10.0548 17.0054 9.7993 16.9466 9.538C16.8557 9.13389 17.1096 8.73259 17.5138 8.64169C17.9179 8.55078 18.3192 8.80469 18.4101 9.2088C18.4498 9.38554 18.5048 9.55839 18.5743 9.72539C18.7444 10.1343 19.0015 10.5079 19.3351 10.8177L19.379 10.8585C20.9923 12.3567 21.3053 14.7934 20.1232 16.6509C19.2858 17.9667 17.8342 18.7635 16.2744 18.7635H8.05363C6.2454 18.7635 4.5961 17.7304 3.80693 16.1035L3.70358 15.8904C2.85693 14.145 3.25302 12.0511 4.6787 10.7355C5.36671 10.1006 5.70604 9.17268 5.58992 8.24373L5.51057 7.60888ZM8.74536 20.4135C9.07673 20.165 9.54683 20.2321 9.79536 20.5635L10.0954 20.9635C11.1454 22.3635 13.2454 22.3635 14.2954 20.9635L14.5954 20.5635C14.8439 20.2321 15.314 20.165 15.6454 20.4135C15.9767 20.662 16.0439 21.1321 15.7954 21.4635L15.4954 21.8635C13.8454 24.0635 10.5454 24.0635 8.89536 21.8635L8.59536 21.4635C8.34683 21.1321 8.41399 20.662 8.74536 20.4135Z" fill="#545EE8"/>
<path d="M19.1954 6.01352C19.1954 7.11809 18.3 8.01352 17.1954 8.01352C16.0908 8.01352 15.1954 7.11809 15.1954 6.01352C15.1954 4.90895 16.0908 4.01352 17.1954 4.01352C18.3 4.01352 19.1954 4.90895 19.1954 6.01352Z" fill="#FF6D3B"/>
</svg>
