<svg width="22" height="22" viewBox="0 0 22 22" fill="none" xmlns="http://www.w3.org/2000/svg">
<path fill-rule="evenodd" clip-rule="evenodd" d="M10.9585 2.0625H11.0415C12.725 2.06249 14.0446 2.06249 15.0916 2.17592C16.16 2.29167 17.0257 2.53213 17.7648 3.06914C18.2122 3.39424 18.6058 3.78775 18.9309 4.23522C19.4679 4.97435 19.7083 5.84003 19.8241 6.90844C19.9375 7.95539 19.9375 9.27502 19.9375 10.9585V11.0101C19.9375 12.0735 19.9375 12.9878 19.9106 13.7735C19.8517 15.4909 19.6659 16.7531 18.9309 17.7648C18.6058 18.2122 18.2122 18.6058 17.7648 18.9309C16.7531 19.6659 15.4909 19.8517 13.7735 19.9106C12.9878 19.9375 12.0735 19.9375 11.0101 19.9375H10.9585C9.27502 19.9375 7.95539 19.9375 6.90844 19.8241C5.84003 19.7083 4.97435 19.4679 4.23522 18.9309C3.78775 18.6058 3.39424 18.2122 3.06914 17.7648C2.53213 17.0257 2.29167 16.16 2.17592 15.0916C2.06249 14.0446 2.06249 12.725 2.0625 11.0415V10.9585C2.06249 9.27503 2.06249 7.95539 2.17592 6.90844C2.29167 5.84003 2.53213 4.97435 3.06914 4.23522C3.39424 3.78775 3.78775 3.39424 4.23522 3.06914C4.97435 2.53213 5.84003 2.29167 6.90844 2.17592C7.9554 2.06249 9.27503 2.06249 10.9585 2.0625ZM7.05654 3.54292C6.10512 3.646 5.50909 3.84321 5.04342 4.18154C4.71268 4.42183 4.42183 4.71268 4.18154 5.04342C3.84321 5.50909 3.646 6.10512 3.54292 7.05654C3.43844 8.02083 3.4375 9.26606 3.4375 11C3.4375 12.7339 3.43844 13.9792 3.54292 14.9435C3.646 15.8949 3.84321 16.4909 4.18154 16.9566C4.42183 17.2873 4.71269 17.5782 5.04342 17.8185C5.50909 18.1568 6.10512 18.354 7.05654 18.4571C8.02083 18.5616 9.26606 18.5625 11 18.5625C11.7777 18.5625 12.4591 18.5625 13.0642 18.5526C13.0682 18.1175 13.0817 17.7972 13.1274 17.5088C13.4846 15.2534 15.2534 13.4846 17.5088 13.1274C17.7972 13.0817 18.1175 13.0682 18.5526 13.0642C18.5625 12.4591 18.5625 11.7777 18.5625 11C18.5625 9.26606 18.5616 8.02083 18.4571 7.05654C18.354 6.10512 18.1568 5.50909 17.8185 5.04342C17.5782 4.71269 17.2873 4.42183 16.9566 4.18154C16.4909 3.84321 15.8949 3.646 14.9435 3.54292C13.9792 3.43844 12.7339 3.4375 11 3.4375C9.26606 3.4375 8.02083 3.43844 7.05654 3.54292ZM18.5007 14.4401C18.1295 14.4443 17.9118 14.4557 17.7239 14.4855C16.0569 14.7495 14.7495 16.0569 14.4855 17.7239C14.4557 17.9118 14.4443 18.1295 14.4401 18.5007C15.687 18.4147 16.4071 18.2177 16.9566 17.8185C17.2873 17.5782 17.5782 17.2873 17.8185 16.9566C18.2177 16.4071 18.4147 15.687 18.5007 14.4401ZM10.0833 8.02083L7.33333 8.02083C6.95364 8.02083 6.64583 7.71303 6.64583 7.33333C6.64583 6.95364 6.95364 6.64583 7.33333 6.64583L10.0833 6.64583C10.463 6.64583 10.7708 6.95364 10.7708 7.33333C10.7708 7.71303 10.463 8.02083 10.0833 8.02083ZM15.3542 11C15.3542 11.3797 15.0464 11.6875 14.6667 11.6875L7.33333 11.6875C6.95364 11.6875 6.64583 11.3797 6.64583 11C6.64583 10.6203 6.95364 10.3125 7.33333 10.3125L14.6667 10.3125C15.0464 10.3125 15.3542 10.6203 15.3542 11Z" fill="#2D264B"/>
</svg>
