<svg width="24" height="24" viewBox="0 0 24 24" fill="none" xmlns="http://www.w3.org/2000/svg">
<path fill-rule="evenodd" clip-rule="evenodd" d="M9.6959 4.06268C7.18235 4.06388 4.73554 5.25164 3.19356 7.40347C2.9643 7.72339 2.73857 8.11441 2.36468 8.76207L2.33063 8.82106C2.3265 8.82821 2.32226 8.83553 2.31793 8.84302C2.2738 8.91924 2.22003 9.01213 2.17845 9.1039C1.78467 9.973 2.05965 10.9992 2.83522 11.555C2.91711 11.6137 3.01013 11.6672 3.08646 11.7112C3.09395 11.7155 3.10129 11.7197 3.10843 11.7239L9.06236 15.1614L5.56236 21.2235C5.28621 21.7018 5.45009 22.3134 5.92838 22.5896C6.40667 22.8657 7.01826 22.7018 7.29441 22.2235L10.7944 16.1614L16.7483 19.5989C16.7555 19.603 16.7628 19.6072 16.7703 19.6116C16.8465 19.6557 16.9394 19.7095 17.0312 19.751C17.9003 20.1448 18.9265 19.8698 19.4823 19.0943C19.541 19.0124 19.5945 18.9193 19.6385 18.843C19.6428 18.8355 19.647 18.8282 19.6511 18.8211L19.6852 18.7621C20.0591 18.1145 20.2849 17.7234 20.4473 17.3649C21.5401 14.9531 21.345 12.2396 20.0886 10.062L20.1238 10.001C21.7807 7.13125 20.7974 3.4617 17.9277 1.80485C15.0579 0.147996 11.3884 1.13124 9.73151 4.001L9.6959 4.06268ZM11.9094 4.37497C12.2772 4.48107 12.641 4.61465 12.998 4.77638C13.3565 4.93882 13.7475 5.16458 14.3951 5.53853L16.4616 6.73163C17.1093 7.10552 17.5003 7.33125 17.8203 7.56051C18.1384 7.78848 18.4356 8.0364 18.7111 8.30154C19.3233 6.52689 18.6141 4.51058 16.9277 3.5369C15.2411 2.56316 13.1402 2.95724 11.9094 4.37497ZM10.1799 6.08199C8.12771 5.91658 6.07369 6.81786 4.81925 8.56842C4.65477 8.79795 4.48087 9.09673 4.06268 9.82106C4.03197 9.87426 4.01521 9.90335 4.00328 9.92484C4.00242 9.9264 4.00164 9.92782 4.00093 9.92911C4.00218 9.92987 4.00357 9.93071 4.0051 9.93163C4.02618 9.94429 4.05524 9.9611 4.10843 9.99181L10.9284 13.9293L17.7483 17.8668C17.8015 17.8975 17.8306 17.9143 17.8521 17.9262C17.8537 17.9271 17.8551 17.9279 17.8564 17.9286C17.8571 17.9273 17.858 17.9259 17.8589 17.9244C17.8716 17.9033 17.8884 17.8743 17.9191 17.8211C18.3373 17.0967 18.5091 16.7967 18.6256 16.5395C19.5159 14.5746 19.2671 12.3408 18.0927 10.6452C17.7099 10.0927 17.2287 9.59706 16.6553 9.18621C16.4258 9.02173 16.127 8.84783 15.4027 8.42963L13.4541 7.30463C12.7298 6.88644 12.4298 6.71464 12.1726 6.5981C11.5268 6.30549 10.8533 6.13626 10.1799 6.08199Z" fill="white"/>
</svg>
