<svg width="22" height="22" viewBox="0 0 22 22" fill="none" xmlns="http://www.w3.org/2000/svg">
<path fill-rule="evenodd" clip-rule="evenodd" d="M14.8537 4.19411L14.9362 4.24177C15.6495 4.65355 16.2443 4.99693 16.6798 5.33302C17.1395 5.68776 17.5044 6.09494 17.6572 6.66528C17.81 7.23561 17.6976 7.77067 17.4769 8.30773C17.2678 8.81655 16.9243 9.41131 16.5125 10.1246L13.0068 16.1967C12.991 16.2241 12.9754 16.2511 12.96 16.2779C12.6878 16.7502 12.4725 17.1237 12.145 17.4052C11.8174 17.6866 11.4158 17.8432 10.9078 18.0412C10.879 18.0524 10.8499 18.0637 10.8205 18.0752L10.7705 18.0947C9.82799 18.463 9.05108 18.7666 8.41486 18.9152C7.74946 19.0707 7.107 19.09 6.50817 18.7443C5.90934 18.3985 5.60486 17.8325 5.4068 17.1785C5.21741 16.5532 5.09185 15.7286 4.93951 14.7282L4.93144 14.6752C4.92668 14.6439 4.92195 14.613 4.91728 14.5825C4.83475 14.0436 4.76949 13.6175 4.84946 13.1931C4.92942 12.7687 5.14526 12.3956 5.41823 11.9237C5.43369 11.8969 5.44934 11.8699 5.46515 11.8425L8.97088 5.7704C9.38266 5.05712 9.72603 4.46234 10.0621 4.02682C10.4169 3.56712 10.824 3.20226 11.3944 3.04944C11.9647 2.89662 12.4998 3.00901 13.0368 3.22974C13.5457 3.43887 14.1404 3.78228 14.8537 4.19411ZM12.5141 4.50152C12.1194 4.33927 11.9134 4.33387 11.7503 4.37759C11.5871 4.42132 11.4114 4.52896 11.1507 4.86685C10.9555 5.11984 10.7474 5.4545 10.483 5.90462L15.6402 8.88212C15.8978 8.42813 16.0836 8.0806 16.2051 7.78503C16.3674 7.39026 16.3728 7.18433 16.329 7.02115C16.2853 6.85797 16.1777 6.68233 15.8398 6.42158C15.4861 6.14863 14.9727 5.85057 14.2075 5.40873C13.4422 4.96689 12.9274 4.67135 12.5141 4.50152ZM14.9542 10.0737L9.79409 7.09457L6.65593 12.53C6.31406 13.1222 6.23181 13.2825 6.20068 13.4477C6.16956 13.6129 6.18781 13.7922 6.29076 14.4682C6.45324 15.5349 6.56547 16.2606 6.72277 16.7799C6.87471 17.2817 7.03141 17.4587 7.19567 17.5535C7.35993 17.6483 7.59156 17.6955 8.10203 17.5763C8.63047 17.4528 9.315 17.1872 10.3201 16.7945C10.957 16.5457 11.1214 16.4718 11.2489 16.3623C11.3764 16.2527 11.4741 16.1013 11.816 15.5092L14.9542 10.0737Z" fill="#2D264B"/>
</svg>
