<svg width="18" height="18" viewBox="0 0 18 18" fill="none" xmlns="http://www.w3.org/2000/svg">
<path fill-rule="evenodd" clip-rule="evenodd" d="M9 2.0625C5.16852 2.0625 2.0625 5.16852 2.0625 9C2.0625 12.8315 5.16852 15.9375 9 15.9375C12.8315 15.9375 15.9375 12.8315 15.9375 9C15.9375 5.16852 12.8315 2.0625 9 2.0625ZM0.9375 9C0.9375 4.5472 4.5472 0.9375 9 0.9375C13.4528 0.9375 17.0625 4.5472 17.0625 9C17.0625 13.4528 13.4528 17.0625 9 17.0625C4.5472 17.0625 0.9375 13.4528 0.9375 9ZM4.99107 10.0006C5.26686 9.85764 5.60636 9.96528 5.74936 10.2411C5.95119 10.6303 6.37106 11.1252 6.95378 11.5214C7.53139 11.9142 8.23567 12.1875 9 12.1875C9.76433 12.1875 10.4686 11.9142 11.0462 11.5214C11.6289 11.1252 12.0488 10.6303 12.2506 10.2411C12.3936 9.96528 12.7331 9.85764 13.0089 10.0006C13.2847 10.1436 13.3924 10.4831 13.2494 10.7589C12.9512 11.334 12.3961 11.9641 11.6788 12.4518C10.9564 12.943 10.0357 13.3125 9 13.3125C7.96433 13.3125 7.04361 12.943 6.32122 12.4518C5.60394 11.9641 5.04881 11.334 4.75064 10.7589C4.60764 10.4831 4.71528 10.1436 4.99107 10.0006Z" fill="#545EE8"/>
<path d="M7.5 6C7.5 6.41421 7.16421 6.75 6.75 6.75C6.33579 6.75 6 6.41421 6 6C6 5.58579 6.33579 5.25 6.75 5.25C7.16421 5.25 7.5 5.58579 7.5 6Z" fill="#545EE8"/>
<path d="M12 6C12 6.41421 11.6642 6.75 11.25 6.75C10.8358 6.75 10.5 6.41421 10.5 6C10.5 5.58579 10.8358 5.25 11.25 5.25C11.6642 5.25 12 5.58579 12 6Z" fill="#545EE8"/>
</svg>
