<svg width="14" height="14" viewBox="0 0 14 14" fill="none" xmlns="http://www.w3.org/2000/svg">
<path fill-rule="evenodd" clip-rule="evenodd" d="M11.3927 2.60733C11.5636 2.77818 11.5636 3.05519 11.3927 3.22605L7.61871 7.00003L11.3927 10.774C11.5635 10.9448 11.5635 11.2219 11.3927 11.3927C11.2218 11.5636 10.9448 11.5636 10.774 11.3927L7 7.61875L3.22603 11.3927C3.05518 11.5636 2.77817 11.5636 2.60731 11.3927C2.43646 11.2219 2.43646 10.9448 2.60731 10.774L6.38128 7.00003L2.6073 3.22605C2.43644 3.05519 2.43644 2.77818 2.6073 2.60733C2.77815 2.43648 3.05516 2.43648 3.22602 2.60733L7 6.38131L10.774 2.60733C10.9448 2.43647 11.2218 2.43647 11.3927 2.60733Z" fill="#C4C4C4"/>
</svg>
