<svg width="18" height="18" viewBox="0 0 18 18" fill="none" xmlns="http://www.w3.org/2000/svg">
<path d="M9.87685 17C13.8109 17 17 13.8109 17 9.87685L17 8.12315C17 4.18914 13.8109 1 9.87685 1L3.67118 1C2.19593 1 0.999997 2.19593 0.999998 3.67118L0.999998 14.3288C0.999998 15.8041 2.19593 17 3.67118 17L9.87685 17Z" fill="#545EE8"/>
<path d="M11.2661 13.1706C10.775 13.1706 10.3302 12.8747 10.139 12.4199L8.90518 9.46722L7.74988 12.3977C7.56874 12.8607 7.12393 13.1666 6.62679 13.1706C6.62277 13.1706 6.61874 13.1706 6.61471 13.1706C6.12361 13.1706 5.6788 12.8747 5.4876 12.4199L3.09449 6.69371C2.83485 6.07178 3.1287 5.35727 3.75063 5.09562C4.37256 4.83598 5.08707 5.12983 5.34872 5.75176L6.58251 8.70441L7.73781 5.7739C7.91895 5.31098 8.36376 5.00505 8.8609 5.00102C9.35804 4.99297 9.80889 5.29286 10.0001 5.75176L11.2339 8.70441L12.3892 5.7739C12.6367 5.14594 13.3452 4.83799 13.9732 5.08555C14.6011 5.33312 14.9091 6.04159 14.6615 6.66956L12.4013 12.3977C12.2201 12.8607 11.7753 13.1666 11.2782 13.1706C11.2741 13.1706 11.2701 13.1706 11.2661 13.1706Z" fill="white"/>
</svg>
