<svg width="23" height="22" viewBox="0 0 23 22" fill="none" xmlns="http://www.w3.org/2000/svg">
<path fill-rule="evenodd" clip-rule="evenodd" d="M11.3539 1.29982C11.4019 1.29983 11.4506 1.29983 11.4999 1.29983C11.5491 1.29983 11.5978 1.29983 11.6458 1.29982C13.1605 1.29958 14.0874 1.29944 14.8603 1.54161C16.4196 2.03015 17.6543 3.21329 18.1679 4.73767C18.1894 4.80157 18.2091 4.86606 18.227 4.93139C18.5992 5.2138 18.9302 5.54518 19.2101 5.91666C19.7401 6.6201 19.9762 7.44362 20.0893 8.45076C20.1998 9.4342 20.1998 10.6719 20.1998 12.2422V12.3289C20.1998 13.8992 20.1998 15.1369 20.0893 16.1203C19.9762 17.1275 19.7401 17.951 19.2101 18.6544C18.8913 19.0776 18.5061 19.4487 18.0694 19.7546C17.3472 20.2606 16.5041 20.4855 15.4683 20.5937C14.4526 20.6998 13.1726 20.6998 11.5405 20.6998H11.4591C9.82702 20.6998 8.547 20.6998 7.5313 20.5937C6.4955 20.4855 5.65243 20.2606 4.93022 19.7546C4.49348 19.4487 4.10836 19.0776 3.78955 18.6544C3.25954 17.951 3.02344 17.1275 2.91028 16.1203C2.79979 15.1369 2.7998 13.8992 2.7998 12.3289V12.2422C2.7998 10.6719 2.79979 9.4342 2.91028 8.45076C3.02344 7.44362 3.25954 6.6201 3.78955 5.91666C4.06947 5.54514 4.40052 5.21373 4.77275 4.9313C4.79066 4.866 4.81028 4.80154 4.8318 4.73767C5.34545 3.21329 6.58011 2.03015 8.13938 1.54161C8.91232 1.29944 9.83917 1.29958 11.3539 1.29982ZM6.76357 4.08786C7.02401 4.0381 7.29772 4.00057 7.58619 3.97176C8.59252 3.87125 9.85649 3.87126 11.4613 3.87126H11.5383C13.1432 3.87126 14.4072 3.87125 15.4135 3.97177C15.702 4.00058 15.9757 4.03812 16.2361 4.08789C15.7852 3.53118 15.1652 3.10423 14.4417 2.87757C13.9003 2.70792 13.2071 2.69983 11.4999 2.69983C9.79261 2.69983 9.09944 2.70792 8.55795 2.87757C7.83456 3.10423 7.21455 3.53117 6.76357 4.08786ZM7.72532 5.36483C6.80623 5.45662 6.22846 5.63256 5.7818 5.93008C5.76559 5.94088 5.7495 5.95187 5.73352 5.96306C5.41565 6.18577 5.13714 6.4546 4.90769 6.75913C4.58888 7.18226 4.40058 7.72554 4.30153 8.60707C4.20084 9.50326 4.1998 10.6624 4.1998 12.2855C4.1998 13.9087 4.20084 15.0678 4.30153 15.964C4.40058 16.8456 4.58888 17.3888 4.90769 17.812C5.13714 18.1165 5.41565 18.3853 5.73352 18.608C6.1796 18.9206 6.75395 19.1049 7.67677 19.2013C8.61125 19.2989 9.81821 19.2998 11.4998 19.2998C13.1814 19.2998 14.3884 19.2989 15.3228 19.2013C16.2457 19.1049 16.82 18.9206 17.2661 18.608C17.584 18.3853 17.8625 18.1165 18.0919 17.812C18.4107 17.3888 18.599 16.8456 18.6981 15.964C18.7988 15.0678 18.7998 13.9087 18.7998 12.2855C18.7998 10.6624 18.7988 9.50326 18.6981 8.60707C18.599 7.72554 18.4107 7.18226 18.0919 6.75913C17.8625 6.4546 17.584 6.18577 17.2661 5.96306C17.2501 5.95189 17.2341 5.94091 17.2179 5.93014C16.7712 5.63259 16.1935 5.45664 15.2744 5.36483C14.3457 5.27208 13.1515 5.27126 11.4998 5.27126C9.84821 5.27126 8.65398 5.27208 7.72532 5.36483Z" fill="000000"/>
<path d="M8.5 12C8.5 12.5523 8.05228 13 7.5 13C6.94772 13 6.5 12.5523 6.5 12C6.5 11.4477 6.94772 11 7.5 11C8.05228 11 8.5 11.4477 8.5 12Z" fill="000000"/>
<path d="M12.5 12C12.5 12.5523 12.0523 13 11.5 13C10.9477 13 10.5 12.5523 10.5 12C10.5 11.4477 10.9477 11 11.5 11C12.0523 11 12.5 11.4477 12.5 12Z" fill="000000"/>
<path d="M16.5 12C16.5 12.5523 16.0523 13 15.5 13C14.9477 13 14.5 12.5523 14.5 12C14.5 11.4477 14.9477 11 15.5 11C16.0523 11 16.5 11.4477 16.5 12Z" fill="000000"/>
</svg>
